<svg xmlns="http://www.w3.org/2000/svg" width="430" height="430" fill="none" viewBox="0 0 430 430"><g fill-rule="evenodd" clip-rule="evenodd"><path fill="url(#uWQpj5uLROa)" d="M248 67v-2c0-12.702-10.297-23-23-23H75c-12.702 0-23 10.297-23 23v60c0 12.703 10.298 23 23 23h42v37a3 3 0 0 0 4.664 2.496L180.908 148h1.286c1.47 11.285 11.12 20 22.806 20h44.092l59.244 39.496A3 3 0 0 0 313 205v-37h42c12.703 0 23-10.297 23-23V90c0-12.702-10.297-23-23-23zM75 48c-9.389 0-17 7.611-17 17v60c0 9.389 7.611 17 17 17h45a3 3 0 0 1 3 3v34.394l55.336-36.89A3 3 0 0 1 180 142h2V90c0-12.703 10.297-23 23-23h37v-2c0-9.389-7.611-17-17-17zm113 97c0 9.389 7.611 17 17 17h45c.592 0 1.171.175 1.664.504L307 199.394V165a3 3 0 0 1 3-3h45c9.389 0 17-7.611 17-17V90c0-9.389-7.611-17-17-17H205c-9.389 0-17 7.611-17 17z"/><path fill="url(#ndSUGZgC4lb)" d="M130 227c-18.225 0-33 14.775-33 33s14.775 33 33 33 33-14.775 33-33-14.775-33-33-33m-27 33c0-14.912 12.088-27 27-27s27 12.088 27 27-12.088 27-27 27-27-12.088-27-27"/><path fill="url(#xryqpSaLM6c)" d="M110 312c-26.51 0-48 21.49-48 48v15a3 3 0 0 0 3 3h130a3 3 0 0 0 3-3v-15c0-26.51-21.49-48-48-48zm-42 48c0-23.196 18.804-42 42-42h40c23.196 0 42 18.804 42 42v12H68z"/><path fill="url(#EYtWIoxarpd)" d="M267 260c0-18.225 14.775-33 33-33s33 14.775 33 33-14.775 33-33 33-33-14.775-33-33m33-27c-14.912 0-27 12.088-27 27s12.088 27 27 27 27-12.088 27-27-12.088-27-27-27"/><path fill="url(#5n5Zh7hynYe)" d="M280 312c-26.51 0-48 21.49-48 48v15a3 3 0 0 0 3 3h130a3 3 0 0 0 3-3v-15c0-26.51-21.49-48-48-48zm-42 48c0-23.196 18.804-42 42-42h40c23.196 0 42 18.804 42 42v12H238z"/></g><defs><linearGradient id="uWQpj5uLROa" x1="158.643" x2="338.515" y1="116.618" y2="313.192" gradientUnits="userSpaceOnUse"><stop stop-color="#cb5eee"/><stop offset="1" stop-color="#4be1ec"/></linearGradient><linearGradient id="ndSUGZgC4lb" x1="158.643" x2="338.515" y1="116.618" y2="313.192" gradientUnits="userSpaceOnUse"><stop stop-color="#cb5eee"/><stop offset="1" stop-color="#4be1ec"/></linearGradient><linearGradient id="xryqpSaLM6c" x1="158.643" x2="338.515" y1="116.618" y2="313.192" gradientUnits="userSpaceOnUse"><stop stop-color="#cb5eee"/><stop offset="1" stop-color="#4be1ec"/></linearGradient><linearGradient id="EYtWIoxarpd" x1="158.643" x2="338.515" y1="116.618" y2="313.192" gradientUnits="userSpaceOnUse"><stop stop-color="#cb5eee"/><stop offset="1" stop-color="#4be1ec"/></linearGradient><linearGradient id="5n5Zh7hynYe" x1="158.643" x2="338.515" y1="116.618" y2="313.192" gradientUnits="userSpaceOnUse"><stop stop-color="#cb5eee"/><stop offset="1" stop-color="#4be1ec"/></linearGradient></defs></svg>