<svg xmlns="http://www.w3.org/2000/svg" width="430" height="430" fill="none" viewBox="0 0 430 430"><path fill="url(#LkzM2s_04xa)" fill-rule="evenodd" d="M213.577 51.485a3 3 0 0 1 4.064.015L267.4 97.648V69.8a3 3 0 0 1 3-3h47.1a3 3 0 0 1 3 3v77.095l29.221 27.1q.122.102.233.216l30.287 28.089a3 3 0 0 1-4.08 4.4l-25.36-23.521v192.647q.1.371.101.774a3 3 0 0 1-3 3H81.601a3 3 0 0 1-3-3V182.966l-25.876 23.648a3 3 0 1 1-4.048-4.429l30.55-27.918c.212-.274.47-.511.763-.698zM84.602 177.483V373.6H170.8V238.4a3 3 0 0 1 3-3h83.6a3 3 0 0 1 3 3v135.2h84.4V177.615L215.586 57.778zM254.4 373.6V241.4h-77.6v132.2zm60.1-232.27-41.1-38.117V72.8h41.1z" clip-rule="evenodd"/><defs><linearGradient id="LkzM2s_04xa" x1="156.797" x2="332.014" y1="123.741" y2="323.861" gradientUnits="userSpaceOnUse"><stop stop-color="#cb5eee"/><stop offset="1" stop-color="#4be1ec"/></linearGradient></defs></svg>