<svg xmlns="http://www.w3.org/2000/svg" width="430" height="430" fill="none" viewBox="0 0 430 430"><path fill="#4bb3fd" d="M381.05 215v3.5a165.6 165.6 0 0 1-15.311 66.323 165.6 165.6 0 0 1-40.689 54.567 163 163 0 0 1-5.56 4.71 165.3 165.3 0 0 1-75.24 34.39 167.8 167.8 0 0 1-57 .25 165.25 165.25 0 0 1-76.69-34.64q-2.83-2.28-5.56-4.71A165.6 165.6 0 0 1 49 218.5v-7a165.6 165.6 0 0 1 56-120.89 164 164 0 0 1 5.57-4.72 165.3 165.3 0 0 1 76.67-34.63 168 168 0 0 1 57 .25 165.3 165.3 0 0 1 75.2 34.39 187 187 0 0 1 5.57 4.71A165.66 165.66 0 0 1 381 211.5c0 1.17.05 2.33.05 3.5"/><path fill="#ebe6ef" d="M381 218.5v-7h-56.81c-.52-40.4-10.07-78.5-27.19-108.57a195 195 0 0 0 27-11.49 3.5 3.5 0 0 0 1-.83 156 156 0 0 0-5.57-4.71 191 191 0 0 1-26.06 10.89l-.67-1.09c-13.62-21.39-30.28-36.44-48.5-44.19a168 168 0 0 0-57-.25 83 83 0 0 0-13.17 7.18c-12.73 8.56-24.42 21.09-34.42 37.3l-1 1.7a190 190 0 0 1-28-11.55 198 198 0 0 0-5.57 4.72c.274.341.614.624 1 .83a196 196 0 0 0 29 12.19c-16.3 30-25.42 67.78-25.92 107.87H49v7h60.14c.5 40.08 9.62 77.89 25.92 107.86a197 197 0 0 0-29 12.2 3.2 3.2 0 0 0-1 .83q2.73 2.43 5.56 4.71a189 189 0 0 1 28-11.55l1 1.7c13.36 21.65 29.73 36.81 47.65 44.49a167.8 167.8 0 0 0 57-.25 85 85 0 0 0 13-6.92c13.16-8.51 25.22-21.08 35.54-37.28l.66-1.07a190 190 0 0 1 26.08 10.88 177 177 0 0 0 5.56-4.71 3.2 3.2 0 0 0-1-.83A194 194 0 0 0 297 327.08c17.11-30.08 26.67-68.18 27.19-108.58zM211.52 52.56c0 9.36.1 17.79.15 25.88.06 10.21.12 20 .17 30.63a251.2 251.2 0 0 1-66.39-9.51c17.11-27.86 40.36-45.56 66.07-47m0 324.88c-25.72-1.47-49-19.15-66.09-47a251.2 251.2 0 0 1 66.44-9.51c-.09 26.07-.22 43.68-.34 56.51zm.38-63.51a257.6 257.6 0 0 0-70.09 10.3c-15.53-28.08-25.17-65.1-25.69-105.73h95.92c.01 40.21-.04 71.2-.13 95.43zM116.13 211.5c.52-40.64 10.16-77.66 25.69-105.74a257.5 257.5 0 0 0 70.05 10.31c.11 23.1.18 51.07.18 95.43zM286.51 99a250 250 0 0 1-67.67 10.09c-.05-10.64-.11-20.44-.17-30.66 0-8.08-.1-16.5-.15-25.85C244.94 54 268.85 71.43 286.51 99m-68 278.47c.12-12.83.25-30.47.35-56.5 22.9.227 45.66 3.602 67.64 10.03-17.66 27.56-41.56 45-67.97 46.44zm71.73-52.57a256.8 256.8 0 0 0-71.35-10.93c.08-24.23.14-55.23.14-95.44h98.14c-.53 40.92-10.64 78.19-26.91 106.34zm-71.19-113.4c0-44.36-.07-72.34-.18-95.44a256.6 256.6 0 0 0 71.4-10.92c16.26 28.15 26.37 65.41 26.92 106.36z"/><path fill="#4bb3fd" d="M214.999 381.05c-44.512 0-86.457-17.848-117.15-48.353-31.439-31.245-48.882-74.125-48.882-117.665-.496-44.79 18.247-87.38 49.21-118.059C128.858 66.88 169.269 49 214.999 49c-34.47 0-62.41 74.34-62.41 166.05s27.94 166 62.41 166" opacity=".5" style="mix-blend-mode:multiply"/></svg>