<svg xmlns="http://www.w3.org/2000/svg" width="430" height="430" fill="none" viewBox="0 0 430 430"><path fill="url(#fyw_C_F6iSa)" d="M134.939 238.69a3 3 0 0 0 0 6h160.12a3 3 0 1 0 0-6z"/><path fill="url(#RsDrfwjdJ_b)" d="M134.939 292.06a3 3 0 0 0 0 6h160.12a3 3 0 1 0 0-6z"/><path fill="url(#QVcewOIVh7c)" d="M131.939 348.43a3 3 0 0 1 3-3h160.12a3 3 0 1 1 0 6h-160.12a3 3 0 0 1-3-3"/><path fill="url(#g6zGONX2Jbd)" fill-rule="evenodd" d="M81.57 25.19a3 3 0 0 0-3 3v373.14a3 3 0 0 0 3 3h266.86a3 3 0 0 0 3-3V134.94a3 3 0 0 0-.388-1.476 3 3 0 0 0-.49-.645l-106.74-106.75a3 3 0 0 0-2.029-.878l-.093-.001zm157.119 6H84.57v367.14h260.86V137.94H241.689a3 3 0 0 1-3-3z" clip-rule="evenodd"/><defs><linearGradient id="fyw_C_F6iSa" x1="167.829" x2="367.187" y1="109.388" y2="270.994" gradientUnits="userSpaceOnUse"><stop stop-color="#cb5eee"/><stop offset="1" stop-color="#4be1ec"/></linearGradient><linearGradient id="RsDrfwjdJ_b" x1="167.829" x2="367.187" y1="109.388" y2="270.994" gradientUnits="userSpaceOnUse"><stop stop-color="#cb5eee"/><stop offset="1" stop-color="#4be1ec"/></linearGradient><linearGradient id="QVcewOIVh7c" x1="167.829" x2="367.187" y1="109.388" y2="270.994" gradientUnits="userSpaceOnUse"><stop stop-color="#cb5eee"/><stop offset="1" stop-color="#4be1ec"/></linearGradient><linearGradient id="g6zGONX2Jbd" x1="167.829" x2="367.187" y1="109.388" y2="270.994" gradientUnits="userSpaceOnUse"><stop stop-color="#cb5eee"/><stop offset="1" stop-color="#4be1ec"/></linearGradient></defs></svg>