<svg xmlns="http://www.w3.org/2000/svg" width="430" height="430" fill="none" viewBox="0 0 430 430"><path fill="url(#IkpcY-86tha)" d="M257.9 240.5h-8.4l-.1-14.6c17.8-11.3 29.7-31.3 29.7-53.9v-28.7c8.3-7.1 7.8-24.9 7.1-47.1-.1-2.8-.2-5.8-.2-8.7-.3-13.9-6.1-24.9-16.6-31.8-17.4-11.3-45-9.6-63.4-2.1-.1 0-.2.1-.3.1-6.6 3.5-12.8 4.2-15.2 4.3-2.3.2-4.7-.7-6.5-2.3-.8-.7-1.7-1.5-2.8-2.5-3-2.8-6.8-6.4-10.8-8.9-4.5-2.9-11.7-3.1-16.4-.5-34.8 19.9-9.1 96.9-8 100.1.4 1.2 1.6 2 2.8 2 .2 0 .4 0 .6-.1.1 0 .2 0 .3-.1V172c0 22 11.1 41.4 28.1 52.9v15.6h-6c-44.8 0-81.2 36.4-81.2 81.2V353c0 10.1 8.2 18.3 18.3 18.3h19.2C149.2 373 159 378 167 382c6.4 3.2 11.9 6 20.7 6H240c8.8 0 14.3-2.8 20.7-6 7.9-4 17.8-9 38.8-10.7h21.3c10.1 0 18.3-8.2 18.3-18.3v-31.4c0-44.7-36.4-81.1-81.2-81.1M143 101.4c-2.1-18.9-1.4-43.4 14.2-52.3 1.3-.7 3-1.1 4.8-1.1 2 0 4.1.5 5.5 1.4 3.5 2.2 7 5.5 9.9 8.2 1.1 1 2.1 1.9 2.9 2.7 3.1 2.7 6.9 4 10.8 3.7 5.8-.3 12.1-2.1 17.5-4.9 22.3-9.1 45.9-6.1 57.7 1.6 8.9 5.8 13.6 14.9 13.8 26.9.1 3 .2 5.9.2 8.8.4 15 .8 28.6-1.6 36.5-.5-4-1.5-8.9-3.4-14.4-4.2-11.9-13.7-28.5-35.4-39.8-.8-.4-1.8-.4-2.6-.1-.8.4-1.5 1.1-1.7 2 0 .1-3.2 11.1-15.4 23.9-19.6 20.6-47.9 30.4-69.1 35.1-1.8-6-6.2-21.5-8.1-38.2m13 70.6v-27.5c21.7-5.2 49.3-15.6 68.8-36.3 9-9.5 13.3-18 15.2-22.6 14.3 8.2 24.2 19.9 29.5 34.6 2.9 8.1 3.5 15 3.7 18.7V172c0 31.9-26 57.9-57.9 57.9h-1.4c-31.9-.1-57.9-26-57.9-57.9m57.9 63.8h1.4c10.1 0 19.7-2.4 28.2-6.6v13.7c0 15.7-12.8 28.5-28.5 28.5h-2.5c-15.7 0-28.5-12.8-28.5-28.5v-14.5c9 4.8 19.1 7.4 29.9 7.4M333.1 353c0 6.8-5.5 12.3-12.3 12.3h-22.1c-22 1.8-32.5 7-40.9 11.3-6.2 3.1-10.7 5.4-18 5.4h-52.1c-7.3 0-11.8-2.3-18-5.4-8.4-4.3-18.9-9.6-41.2-11.3H109c-6.8 0-12.3-5.5-12.3-12.3v-31.4c0-41.5 33.7-75.2 75.2-75.2h6.2c1.8 17.4 16.5 30.9 34.3 30.9h2.5c17.8 0 32.5-13.6 34.3-30.9h8.6c41.5 0 75.2 33.7 75.2 75.2V353zm-46.3-27.3v2.5c0 10.5-8.6 19.1-19.1 19.1h-4.1c-10.5 0-19.1-8.6-19.1-19.1v-2.5c0-4.5.3-8.7.7-12 .4-3.4 1-8 4.6-8h.2c.9 0 2 0 6.1 4 6.3-4.9 12.8-4.9 19.1 0 4.1-4 5.2-4 6.1-4h.2c3.6 0 4.2 4.6 4.6 8 .4 3.3.7 7.5.7 12"/><defs><linearGradient id="IkpcY-86tha" x1="171.89" x2="353.753" y1="118.823" y2="265.937" gradientUnits="userSpaceOnUse"><stop stop-color="#cb5eee"/><stop offset="1" stop-color="#4be1ec"/></linearGradient></defs></svg>